<?xml version="1.0" encoding="UTF-8" standalone="no"?> <!-- Created with Vectornator for iOS (http://vectornator.io/) --><!DOCTYPE svg PUBLIC "-//W3C//DTD SVG 1.1//EN" "http://www.w3.org/Graphics/SVG/1.1/DTD/svg11.dtd">
<svg height="100%" style="fill-rule:evenodd;clip-rule:evenodd;stroke-linecap:round;stroke-linejoin:round;" xmlns:xlink="http://www.w3.org/1999/xlink" xmlns="http://www.w3.org/2000/svg" xml:space="preserve" width="100%" xmlns:vectornator="http://vectornator.io" version="1.1" viewBox="0 0 48 42.6918">
<metadata>
<vectornator:setting key="RulersVisible" value="1"/>
<vectornator:setting key="Units" value="Points"/>
<vectornator:setting key="DynamicGuides" value="1"/>
<vectornator:setting key="GuidesVisible" value="1"/>
<vectornator:setting key="CMYKEnabledKey" value="0"/>
<vectornator:setting key="SnapToGuides" value="1"/>
<vectornator:setting key="GridSpacing" value="36"/>
</metadata>
<defs/>
<g id="Untitled" vectornator:layerName="Untitled">
<path d="M0+0L48+0L48+42.6918L0+42.6918L0+0Z" opacity="1" fill="#312c2c"/>
<path d="M40.9999+29.4808L18.7709+29.4808L13.9669+11.2268C13.8519+10.7868+13.4539+10.4808+12.9999+10.4808L2.99987+10.4808C2.44687+10.4808+1.99987+10.9288+1.99987+11.4808C1.99987+12.0328+2.44687+12.4808+2.99987+12.4808L12.2289+12.4808L16.7029+29.4808L13.9999+29.4808C11.7939+29.4808+9.99987+31.2748+9.99987+33.4808C9.99987+35.3788+11.3319+36.9648+13.1079+37.3728C13.1989+37.7698+13.3559+38.1388+13.5559+38.4808L8.99987+38.4808C8.44687+38.4808+7.99987+38.9288+7.99987+39.4808C7.99987+40.0328+8.44687+40.4808+8.99987+40.4808L16.9999+40.4808C18.8579+40.4808+20.4109+39.2008+20.8579+37.4808L30.1409+37.4808C30.2339+37.8368+30.3739+38.1698+30.5559+38.4808L26.9999+38.4808C26.4469+38.4808+25.9999+38.9288+25.9999+39.4808C25.9999+40.0328+26.4469+40.4808+26.9999+40.4808L33.9999+40.4808C36.2059+40.4808+37.9999+38.6868+37.9999+36.4808C37.9999+34.2748+36.2059+32.4808+33.9999+32.4808C32.1419+32.4808+30.5889+33.7608+30.1419+35.4808L20.8589+35.4808C20.4119+33.7608+18.8589+32.4808+17.0009+32.4808C15.2049+32.4808+13.7009+33.6768+13.1959+35.3088C12.4929+34.9988+11.9999+34.2968+11.9999+33.4808C11.9999+32.3778+12.8969+31.4808+13.9999+31.4808L40.9999+31.4808C41.5529+31.4808+41.9999+31.0328+41.9999+30.4808C41.9999+29.9288+41.5529+29.4808+40.9999+29.4808ZM33.9999+34.4808C35.1029+34.4808+35.9999+35.3778+35.9999+36.4808C35.9999+37.5838+35.1029+38.4808+33.9999+38.4808C32.8969+38.4808+31.9999+37.5838+31.9999+36.4808C31.9999+35.3778+32.8969+34.4808+33.9999+34.4808ZM16.9999+34.4808C18.1029+34.4808+18.9999+35.3778+18.9999+36.4808C18.9999+37.5838+18.1029+38.4808+16.9999+38.4808C15.8969+38.4808+14.9999+37.5838+14.9999+36.4808C14.9999+35.3778+15.8969+34.4808+16.9999+34.4808ZM45.9619+12.7558L41.9619+26.7558C41.8389+27.1848+41.4459+27.4808+40.9999+27.4808L20.9999+27.4808C20.5539+27.4808+20.1609+27.1848+20.0379+26.7558L16.0379+12.7558C15.8869+12.2248+16.1939+11.6718+16.7259+11.5198C17.2539+11.3688+17.8099+11.6748+17.9619+12.2068L21.7539+25.4808L29.9999+25.4808L40.2459+25.4808L43.6739+13.4808L38.9999+13.4808C38.4469+13.4808+37.9999+13.0328+37.9999+12.4808C37.9999+11.9288+38.4469+11.4808+38.9999+11.4808L44.9999+11.4808C45.3129+11.4808+45.6089+11.6278+45.7989+11.8788C45.9869+12.1288+46.0479+12.4538+45.9619+12.7558ZM6.99987+39.4808C6.99987+40.0328+6.55287+40.4808+5.99987+40.4808L4.99987+40.4808C4.44687+40.4808+3.99987+40.0328+3.99987+39.4808C3.99987+38.9288+4.44687+38.4808+4.99987+38.4808L5.99987+38.4808C6.55287+38.4808+6.99987+38.9288+6.99987+39.4808ZM3.99987+33.4808C3.99987+32.9288+4.44687+32.4808+4.99987+32.4808L7.99987+32.4808C8.55287+32.4808+8.99987+32.9288+8.99987+33.4808C8.99987+34.0328+8.55287+34.4808+7.99987+34.4808L4.99987+34.4808C4.44687+34.4808+3.99987+34.0328+3.99987+33.4808ZM16.2899+37.1908C16.1089+37.0008+15.9999+36.7408+15.9999+36.4808C15.9999+36.2208+16.1089+35.9608+16.2899+35.7708C16.6489+35.4008+17.3399+35.4008+17.7099+35.7708C17.8899+35.9608+17.9999+36.2208+17.9999+36.4808C17.9999+36.7408+17.8899+37.0008+17.7099+37.1908C17.5199+37.3708+17.2599+37.4808+16.9999+37.4808C16.7399+37.4808+16.4789+37.3708+16.2899+37.1908ZM33.2899+37.1908C33.1089+37.0008+32.9999+36.7508+32.9999+36.4808C32.9999+36.2108+33.1089+35.9608+33.2899+35.7708C33.6699+35.4008+34.3299+35.4008+34.7099+35.7708C34.8899+35.9608+34.9999+36.2208+34.9999+36.4808C34.9999+36.7408+34.8899+37.0008+34.7099+37.1908C34.5199+37.3708+34.2599+37.4808+33.9999+37.4808C33.7399+37.4808+33.4789+37.3708+33.2899+37.1908ZM37.1469+18.3338C37.1469+15.9548+35.9959+13.1388+34.3549+11.2548L36.5159+5.85182C36.6779+5.44482+36.5569+4.97982+36.2169+4.70382C35.8769+4.42682+35.3979+4.40582+35.0319+4.64782L32.3609+6.42882L30.7059+4.77282C30.3149+4.38182+29.6829+4.38182+29.2919+4.77282L27.6369+6.42882L24.9659+4.64782C24.6019+4.40582+24.1219+4.42682+23.7809+4.70382C23.4409+4.97982+23.3199+5.44482+23.4819+5.85182L25.6429+11.2548C24.0019+13.1388+22.8509+15.9548+22.8509+18.3338C22.8529+22.2748+26.0589+25.4808+29.9999+25.4808C33.9409+25.4808+37.1469+22.2748+37.1469+18.3338ZM27.2099+8.54782C27.6059+8.81182+28.1339+8.75982+28.4719+8.42282L29.9999+6.89481L31.5279+8.42281C31.8649+8.75981+32.3929+8.81081+32.7899+8.54781L33.4639+8.09881L32.6759+10.0688L27.3239+10.0688L26.5359+8.09881L27.2099+8.54782ZM29.9999+23.4808C27.1619+23.4808+24.8529+21.1718+24.8529+18.3338C24.8529+16.2028+26.0459+13.5288+27.6149+12.0688L32.3859+12.0688C33.9539+13.5278+35.1479+16.2028+35.1479+18.3338C35.1469+21.1718+32.8379+23.4808+29.9999+23.4808ZM33.2499+18.9808C33.2499+20.3588+32.1289+21.4808+30.7499+21.4808C30.7499+22.0328+30.3029+22.4808+29.7499+22.4808C29.1969+22.4808+28.7499+22.0328+28.7499+21.4808C28.1969+21.4808+27.7499+21.0328+27.7499+20.4808C27.7499+19.9288+28.1969+19.4808+28.7499+19.4808L30.7499+19.4808C31.0249+19.4808+31.2499+19.2568+31.2499+18.9808C31.2499+18.7048+31.0249+18.4808+30.7499+18.4808L29.2499+18.4808C27.8709+18.4808+26.7499+17.3588+26.7499+15.9808C26.7499+14.7738+27.6099+13.7638+28.7499+13.5318L28.7499+13.4808C28.7499+12.9288+29.1969+12.4808+29.7499+12.4808C30.3029+12.4808+30.7499+12.9288+30.7499+13.4808L31.7499+13.4808C32.3029+13.4808+32.7499+13.9288+32.7499+14.4808C32.7499+15.0328+32.3029+15.4808+31.7499+15.4808L29.2499+15.4808C28.9749+15.4808+28.7499+15.7048+28.7499+15.9808C28.7499+16.2568+28.9749+16.4808+29.2499+16.4808L30.7499+16.4808C32.1289+16.4808+33.2499+17.6028+33.2499+18.9808Z" opacity="1" fill="#ffffff"/>
</g>
</svg>
