<?xml version="1.0" encoding="UTF-8" standalone="no"?> <!-- Created with Vectornator for iOS (http://vectornator.io/) --><!DOCTYPE svg PUBLIC "-//W3C//DTD SVG 1.1//EN" "http://www.w3.org/Graphics/SVG/1.1/DTD/svg11.dtd">
<svg height="100%" style="fill-rule:evenodd;clip-rule:evenodd;stroke-linecap:round;stroke-linejoin:round;" xmlns:xlink="http://www.w3.org/1999/xlink" xmlns="http://www.w3.org/2000/svg" xml:space="preserve" width="100%" xmlns:vectornator="http://vectornator.io" version="1.1" viewBox="0 0 128.584 128.973">
<metadata>
<vectornator:setting key="RulersVisible" value="1"/>
<vectornator:setting key="Units" value="Points"/>
<vectornator:setting key="DynamicGuides" value="1"/>
<vectornator:setting key="GuidesVisible" value="1"/>
<vectornator:setting key="CMYKEnabledKey" value="0"/>
<vectornator:setting key="SnapToGuides" value="1"/>
<vectornator:setting key="GridSpacing" value="36"/>
</metadata>
<defs/>
<g id="Untitled" vectornator:layerName="Untitled">
<path d="M3.93363+5.03222L3.95552+5.03222L3.95552+5.03222L3.93363+5.03222Z" opacity="1" fill="#f7987e"/>
<g opacity="1">
<path d="M2.63407+64.4864C2.63407+29.9452+30.2393+1.94401+64.292+1.94401C98.3447+1.94401+125.95+29.9452+125.95+64.4864C125.95+99.0276+98.3447+127.029+64.292+127.029C30.2393+127.029+2.63407+99.0276+2.63407+64.4864Z" opacity="1" fill="#fef5da"/>
<path d="M109.554+82.8634L57.3011+82.8634L46.0085+39.9586C45.7382+38.9244+44.8027+38.2052+43.7355+38.2052L20.2288+38.2052C18.9289+38.2052+17.8782+39.2582+17.8782+40.5556C17.8782+41.853+18.9289+42.906+20.2288+42.906L41.9231+42.906L52.44+82.8634L46.0861+82.8634C40.9006+82.8634+36.6835+87.08+36.6835+92.2651C36.6835+96.7262+39.8146+100.454+43.9893+101.413C44.2032+102.346+44.5723+103.213+45.0424+104.017L34.3328+104.017C33.0329+104.017+31.9821+105.07+31.9821+106.368C31.9821+107.665+33.0329+108.718+34.3328+108.718L53.1381+108.718C57.5056+108.718+61.1562+105.71+62.207+101.667L84.0282+101.667C84.2468+102.504+84.5759+103.286+85.0037+104.017L76.6447+104.017C75.3448+104.017+74.2941+105.07+74.2941+106.368C74.2941+107.665+75.3448+108.718+76.6447+108.718L93.0994+108.718C98.2849+108.718+102.502+104.501+102.502+99.3164C102.502+94.1313+98.2849+89.9147+93.0994+89.9147C88.7318+89.9147+85.0812+92.9232+84.0305+96.966L62.2093+96.966C61.1586+92.9232+57.508+89.9147+53.1405+89.9147C48.9187+89.9147+45.3833+92.7258+44.1962+96.5617C42.5437+95.8331+41.3848+94.1831+41.3848+92.2651C41.3848+89.6726+43.4933+87.5642+46.0861+87.5642L109.554+87.5642C110.854+87.5642+111.905+86.5112+111.905+85.2138C111.905+83.9164+110.854+82.8634+109.554+82.8634ZM93.0994+94.6155C95.6921+94.6155+97.8007+96.7239+97.8007+99.3164C97.8007+101.909+95.6921+104.017+93.0994+104.017C90.5066+104.017+88.398+101.909+88.398+99.3164C88.398+96.7239+90.5066+94.6155+93.0994+94.6155ZM53.1381+94.6155C55.7309+94.6155+57.8394+96.7239+57.8394+99.3164C57.8394+101.909+55.7309+104.017+53.1381+104.017C50.5453+104.017+48.4368+101.909+48.4368+99.3164C48.4368+96.7239+50.5453+94.6155+53.1381+94.6155ZM121.218+43.5524L111.815+76.4584C111.526+77.4668+110.602+78.1625+109.554+78.1625L62.5408+78.1625C61.4924+78.1625+60.5685+77.4668+60.2794+76.4584L50.8768+43.5524C50.5218+42.3043+51.2435+41.0045+52.494+40.6473C53.7352+40.2924+55.0421+41.0116+55.3994+42.262L64.3131+73.4616L83.6967+73.4616L107.782+73.4616L115.84+45.2565L104.853+45.2565C103.553+45.2565+102.502+44.2035+102.502+42.906C102.502+41.6086+103.553+40.5556+104.853+40.5556L118.957+40.5556C119.692+40.5556+120.388+40.9011+120.835+41.4911C121.277+42.0787+121.42+42.8426+121.218+43.5524ZM29.6315+106.368C29.6315+107.665+28.5807+108.718+27.2808+108.718L24.9302+108.718C23.6302+108.718+22.5795+107.665+22.5795+106.368C22.5795+105.07+23.6302+104.017+24.9302+104.017L27.2808+104.017C28.5807+104.017+29.6315+105.07+29.6315+106.368ZM22.5795+92.2651C22.5795+90.9677+23.6302+89.9147+24.9302+89.9147L31.9821+89.9147C33.2821+89.9147+34.3328+90.9677+34.3328+92.2651C34.3328+93.5625+33.2821+94.6155+31.9821+94.6155L24.9302+94.6155C23.6302+94.6155+22.5795+93.5625+22.5795+92.2651ZM51.4691+100.985C51.0437+100.539+50.7874+99.9275+50.7874+99.3164C50.7874+98.7053+51.0437+98.0942+51.4691+97.6476C52.313+96.7779+53.9373+96.7779+54.8071+97.6476C55.2302+98.0942+55.4888+98.7053+55.4888+99.3164C55.4888+99.9275+55.2302+100.539+54.8071+100.985C54.3604+101.408+53.7493+101.667+53.1381+101.667C52.5269+101.667+51.9134+101.408+51.4691+100.985ZM91.4304+100.985C91.0049+100.539+90.7487+99.951+90.7487+99.3164C90.7487+98.6818+91.0049+98.0942+91.4304+97.6476C92.3236+96.7779+93.8751+96.7779+94.7683+97.6476C95.1914+98.0942+95.45+98.7053+95.45+99.3164C95.45+99.9275+95.1914+100.539+94.7683+100.985C94.3217+101.408+93.7105+101.667+93.0994+101.667C92.4882+101.667+91.8747+101.408+91.4304+100.985ZM100.497+56.6631C100.497+51.0714+97.7913+44.4526+93.9338+40.0244L99.0136+27.325C99.3944+26.3684+99.11+25.2755+98.3108+24.6267C97.5115+23.9757+96.3856+23.9263+95.5252+24.4951L89.2466+28.6812L85.3563+24.7889C84.4372+23.8699+82.9515+23.8699+82.0324+24.7889L78.1421+28.6812L71.8635+24.4951C71.0078+23.9263+69.8795+23.9757+69.0779+24.6267C68.2787+25.2755+67.9943+26.3684+68.3751+27.325L73.4549+40.0244C69.5974+44.4526+66.8918+51.0714+66.8918+56.6631C66.8965+65.9262+74.4327+73.4616+83.6967+73.4616C92.9607+73.4616+100.497+65.9262+100.497+56.6631ZM77.1384+33.6618C78.0692+34.2823+79.3104+34.1601+80.1049+33.368L83.6967+29.7765L87.2885+33.368C88.0807+34.1601+89.3218+34.28+90.2551+33.6618L91.8394+32.6064L89.9871+37.2368L77.4063+37.2368L75.554+32.6064L77.1384+33.6618ZM83.6967+68.7608C77.0255+68.7608+71.5979+63.3336+71.5979+56.6631C71.5979+51.6543+74.4022+45.3693+78.0904+41.9377L89.3054+41.9377C92.9912+45.3669+95.7979+51.6543+95.7979+56.6631C95.7956+63.3336+90.3679+68.7608+83.6967+68.7608Z" opacity="1" fill="#f7987e"/>
<path d="M91.5973+58.1824C91.5973+61.4213+88.9622+64.0585+85.7206+64.0585C85.7206+65.3559+84.6699+66.4089+83.37+66.4089C82.0701+66.4089+81.0193+65.3559+81.0193+64.0585C79.7194+64.0585+78.6687+63.0055+78.6687+61.708C78.6687+60.4106+79.7194+59.3576+81.0193+59.3576L85.7206+59.3576C86.3671+59.3576+86.896+58.8311+86.896+58.1824C86.896+57.5337+86.3671+57.0072+85.7206+57.0072L82.1946+57.0072C78.9531+57.0072+76.318+54.37+76.318+51.1311C76.318+48.2941+78.3396+45.9202+81.0193+45.3749L81.0193+45.255C81.0193+43.9576+82.0701+42.9046+83.37+42.9046C84.6699+42.9046+85.7206+43.9576+85.7206+45.255L88.0713+45.255C89.3712+45.255+90.422+46.308+90.422+47.6054C90.422+48.9029+89.3712+49.9559+88.0713+49.9559L82.1946+49.9559C81.5482+49.9559+81.0193+50.4824+81.0193+51.1311C81.0193+51.7798+81.5482+52.3063+82.1946+52.3063L85.7206+52.3063C88.9622+52.3063+91.5973+54.9435+91.5973+58.1824Z" opacity="1" fill="#5fd482"/>
</g>
</g>
</svg>
